HIERARCHY
ROOT Hips
{
  OFFSET 5.72205e-005 65.662 3.42586
  CHANNELS 6 Xposition Yposition Zposition Zrotation Xrotation Yrotation
  JOINT Chest
  {
    OFFSET 0 8.7983 -4.7612
    CHANNELS 3 Zrotation Xrotation Yrotation
    JOINT Chest2
    {
      OFFSET 0 8.0291 0.4195
      CHANNELS 3 Zrotation Xrotation Yrotation
      JOINT Chest3
      {
        OFFSET 0 9.9351 -2.2114
        CHANNELS 3 Zrotation Xrotation Yrotation
        JOINT Neck
        {
          OFFSET 0 22.3885 -0.4656
          CHANNELS 3 Zrotation Xrotation Yrotation
          JOINT Head
          {
            OFFSET -0.0001 12.643 3.4389
            CHANNELS 3 Zrotation Xrotation Yrotation
            End Site
            {
              OFFSET 0.0001 17.6655 0.5274
            }
          }
        }
        JOINT LeftCollar
        {
          OFFSET 2.2603 21.606 7.4023
          CHANNELS 3 Zrotation Xrotation Yrotation
          JOINT LeftShoulder
          {
            OFFSET 13.5163 -1.1332 -5.0146
            CHANNELS 3 Zrotation Xrotation Yrotation
            JOINT LeftElbow
            {
              OFFSET -0.0995 -28.05 -0.2431
              CHANNELS 3 Zrotation Xrotation Yrotation
              JOINT LeftWrist
              {
                OFFSET 0.0679 -23.3996 -0.1402
                CHANNELS 3 Zrotation Xrotation Yrotation
                JOINT LeftFinger1
                {
                  OFFSET 0.7932 -9.069 2.5189
                  CHANNELS 3 Zrotation Xrotation Yrotation
                  JOINT LeftFinger11
                  {
                    OFFSET -0.8272 -3.3923 0.5977
                    CHANNELS 3 Zrotation Xrotation Yrotation
                    JOINT LeftFinger12
                    {
                      OFFSET -0.5649 -2.3158 0.4082
                      CHANNELS 3 Zrotation Xrotation Yrotation
                      End Site
                      {
                        OFFSET -0.4919 -1.6479 0.2673
                      }
                    }
                  }
                }
                JOINT LeftFinger2
                {
                  OFFSET 0.9159 -9.2044 0.2193
                  CHANNELS 3 Zrotation Xrotation Yrotation
                  JOINT LeftFinger21
                  {
                    OFFSET 0.0117 -4.1944 -0.0248
                    CHANNELS 3 Zrotation Xrotation Yrotation
                    JOINT LeftFinger22
                    {
                      OFFSET 0.0071 -2.3249 -0.0142
                      CHANNELS 3 Zrotation Xrotation Yrotation
                      End Site
                      {
                        OFFSET -0.1475 -2.0882 0.0028
                      }
                    }
                  }
                }
                JOINT LeftFinger3
                {
                  OFFSET 0.6113 -8.7231 -2.0637
                  CHANNELS 3 Zrotation Xrotation Yrotation
                  JOINT LeftFinger31
                  {
                    OFFSET -0.1927 -3.8059 -0.2383
                    CHANNELS 3 Zrotation Xrotation Yrotation
                    JOINT LeftFinger32
                    {
                      OFFSET -0.1091 -2.1688 -0.1362
                      CHANNELS 3 Zrotation Xrotation Yrotation
                      End Site
                      {
                        OFFSET -0.2358 -1.9176 -0.0906
                      }
                    }
                  }
                }
                JOINT LeftFinger4
                {
                  OFFSET -0.6151 -8.0947 -3.5641
                  CHANNELS 3 Zrotation Xrotation Yrotation
                  JOINT LeftFinger41
                  {
                    OFFSET -0.4882 -2.341 -0.6462
                    CHANNELS 3 Zrotation Xrotation Yrotation
                    JOINT LeftFinger42
                    {
                      OFFSET -0.3575 -1.7167 -0.4742
                      CHANNELS 3 Zrotation Xrotation Yrotation
                      End Site
                      {
                        OFFSET -0.4187 -1.5237 -0.3496
                      }
                    }
                  }
                }
                JOINT LeftFinger0
                {
                  OFFSET -1.42 -1.8761 1.4223
                  CHANNELS 3 Zrotation Xrotation Yrotation
                  JOINT LeftFinger01
                  {
                    OFFSET -1.1471 -3.4929 2.6334
                    CHANNELS 3 Zrotation Xrotation Yrotation
                    JOINT LeftFinger02
                    {
                      OFFSET -0.823 -2.3 1.6571
                      CHANNELS 3 Zrotation Xrotation Yrotation
                      End Site
                      {
                        OFFSET -0.5822 -1.6914 1.1582
                      }
                    }
                  }
                }
              }
            }
          }
        }
        JOINT RightCollar
        {
          OFFSET -2.2603 21.606 7.4023
          CHANNELS 3 Zrotation Xrotation Yrotation
          JOINT RightShoulder
          {
            OFFSET -13.5187 -1.1334 -5.0155
            CHANNELS 3 Zrotation Xrotation Yrotation
            JOINT RightElbow
            {
              OFFSET 0.0994 -28.0499 -0.2431
              CHANNELS 3 Zrotation Xrotation Yrotation
              JOINT RightWrist
              {
                OFFSET -0.0679 -23.3996 -0.1402
                CHANNELS 3 Zrotation Xrotation Yrotation
                JOINT RightFinger1
                {
                  OFFSET -0.7932 -9.0691 2.5189
                  CHANNELS 3 Zrotation Xrotation Yrotation
                  JOINT RightFinger11
                  {
                    OFFSET 0.8272 -3.3923 0.5977
                    CHANNELS 3 Zrotation Xrotation Yrotation
                    JOINT RightFinger12
                    {
                      OFFSET 0.565 -2.3158 0.4082
                      CHANNELS 3 Zrotation Xrotation Yrotation
                      End Site
                      {
                        OFFSET 0.4919 -1.6479 0.2673
                      }
                    }
                  }
                }
                JOINT RightFinger2
                {
                  OFFSET -0.916 -9.2044 0.2193
                  CHANNELS 3 Zrotation Xrotation Yrotation
                  JOINT RightFinger21
                  {
                    OFFSET -0.0117 -4.1944 -0.0248
                    CHANNELS 3 Zrotation Xrotation Yrotation
                    JOINT RightFinger22
                    {
                      OFFSET -0.0071 -2.3249 -0.0142
                      CHANNELS 3 Zrotation Xrotation Yrotation
                      End Site
                      {
                        OFFSET 0.1475 -2.0882 0.0028
                      }
                    }
                  }
                }
                JOINT RightFinger3
                {
                  OFFSET -0.6113 -8.7231 -2.0637
                  CHANNELS 3 Zrotation Xrotation Yrotation
                  JOINT RightFinger31
                  {
                    OFFSET 0.1927 -3.8059 -0.2383
                    CHANNELS 3 Zrotation Xrotation Yrotation
                    JOINT RightFinger32
                    {
                      OFFSET 0.1091 -2.1688 -0.1362
                      CHANNELS 3 Zrotation Xrotation Yrotation
                      End Site
                      {
                        OFFSET 0.2358 -1.9176 -0.0906
                      }
                    }
                  }
                }
                JOINT RightFinger4
                {
                  OFFSET 0.6151 -8.0947 -3.564
                  CHANNELS 3 Zrotation Xrotation Yrotation
                  JOINT RightFinger41
                  {
                    OFFSET 0.4882 -2.341 -0.6462
                    CHANNELS 3 Zrotation Xrotation Yrotation
                    JOINT RightFinger42
                    {
                      OFFSET 0.3574 -1.7166 -0.4742
                      CHANNELS 3 Zrotation Xrotation Yrotation
                      End Site
                      {
                        OFFSET 0.4187 -1.5237 -0.3496
                      }
                    }
                  }
                }
                JOINT RightFinger0
                {
                  OFFSET 1.4199 -1.8761 1.4221
                  CHANNELS 3 Zrotation Xrotation Yrotation
                  JOINT RightFinger01
                  {
                    OFFSET 1.1472 -3.4929 2.6336
                    CHANNELS 3 Zrotation Xrotation Yrotation
                    JOINT RightFinger02
                    {
                      OFFSET 0.8229 -2.3 1.6571
                      CHANNELS 3 Zrotation Xrotation Yrotation
                      End Site
                      {
                        OFFSET 0.5822 -1.6914 1.1582
                      }
                    }
                  }
                }
              }
            }
          }
        }
      }
    }
  }
  JOINT RightHip
  {
    OFFSET -9.412 3.9771 -0.7758
    CHANNELS 3 Zrotation Xrotation Yrotation
    JOINT RightKnee
    {
      OFFSET -0.7531 -40.938 0
      CHANNELS 3 Zrotation Xrotation Yrotation
      JOINT RightAnkle
      {
        OFFSET 0 -40.1986 0
        CHANNELS 3 Zrotation Xrotation Yrotation
        JOINT RightToe
        {
          OFFSET 0 -4.4182 9.239
          CHANNELS 3 Zrotation Xrotation Yrotation
          End Site
          {
            OFFSET 0 0 6.1981
          }
        }
      }
    }
  }
  JOINT LeftHip
  {
    OFFSET 9.4119 3.9773 -0.7758
    CHANNELS 3 Zrotation Xrotation Yrotation
    JOINT LeftKnee
    {
      OFFSET 0.7532 -40.9383 0
      CHANNELS 3 Zrotation Xrotation Yrotation
      JOINT LeftAnkle
      {
        OFFSET 0 -40.1986 0
        CHANNELS 3 Zrotation Xrotation Yrotation
        JOINT LeftToe
        {
          OFFSET 0 -4.4182 9.239
          CHANNELS 3 Zrotation Xrotation Yrotation
          End Site
          {
            OFFSET 0 0 6.1981
          }
        }
      }
    }
  }
}
MOTION
Frames:	6
Frame Time:	0.0333333
8.46731 18.5836 -32.4611 5.11461e-007 33.9971 -4.54411e-007 0.875473 11.7803 -0.548855 1.93259 23.55 -1.32989 1.93259 23.5499 -1.32989 0.304132 -1.57989 -0.0300017 0.0317083 -1.78222 -0.0109885 -12.7907 -9.88987 -27.5914 48.0851 -40.157 8.48579 -2.91215 -29.504 17.904 7.99913 3.41873 41.0029 3.97569e-016 1.59028e-015 -6.36111e-015 1.76556e-031 1.59028e-015 -6.36111e-015 8.82781e-032 1.59028e-015 -3.18055e-015 3.97569e-016 1.59028e-015 -6.36111e-015 -0.012806 0.00232352 9.19214e-005 -3.97569e-016 -7.95139e-016 -0 3.97569e-016 1.59028e-015 -6.36111e-015 -0.0160256 0.00299018 0.000858242 3.97569e-016 -1.59028e-015 6.36111e-015 3.97569e-016 1.59028e-015 -6.36111e-015 -0.0126096 0.00312729 0.00283685 1.19271e-015 7.95139e-016 3.18055e-015 3.97569e-016 1.59028e-015 -6.36111e-015 1.76556e-031 1.59028e-015 -6.36111e-015 8.82781e-032 1.59028e-015 -3.18055e-015 2.58082 -12.7809 23.1809 -53.0114 -53.07 -9.70331 5.87525 -35.5318 -16.8112 -47.0474 10.0106 -28.1482 8.82781e-032 -1.59028e-015 3.18055e-015 -5.53284e-006 -2.63533e-007 2.70305e-006 2.38542e-015 -6.36111e-015 -3.18055e-015 8.82781e-032 -1.59028e-015 3.18055e-015 0.0129414 0.00231312 -8.96068e-005 -7.40281e-006 1.35609e-006 1.81687e-006 8.82781e-032 -1.59028e-015 3.18055e-015 0.0163411 0.0030441 -0.000874286 -3.18055e-015 -1.59028e-015 -3.18055e-015 8.82781e-032 -1.59028e-015 3.18055e-015 0.0145933 0.00368234 -0.00326677 -4.77083e-015 0 3.18055e-015 8.82781e-032 -1.59028e-015 3.18055e-015 -5.53284e-006 -2.63533e-007 2.70305e-006 2.38542e-015 -6.36111e-015 -3.18055e-015 -20.2967 -57.2486 -5.6637 -173.834 49.6421 174.655 -11.4725 42.5171 13.421 3.49747e-008 -8.60229e-009 9.38821e-007 35.4006 -52.3308 -0.190917 170.674 64.3442 -172.79 18.5922 46.7324 -38.6076 -8.26482e-007 1.23e-007 -1.46785e-006 
8.46731 18.5836 -32.4611 2.00306e-008 33.9971 1.83159e-007 0.875084 11.7919 -0.549201 1.93213 23.573 -1.33082 1.93213 23.573 -1.33082 0.387827 -2.0066 -0.0282758 0.0406426 -2.2639 -0.0126497 -12.7002 -9.91463 -27.6701 48.6863 -40.3309 8.56709 -2.90405 -29.4876 17.9089 7.99932 3.15812 40.9917 -3.97569e-016 7.95139e-016 3.18055e-015 -1.98785e-016 1.59028e-015 -0 3.97569e-016 -7.95139e-016 3.18055e-015 -3.97569e-016 7.95139e-016 3.18055e-015 -0.0128174 0.00232246 8.17422e-005 1.98785e-016 7.95139e-016 -3.18055e-015 -3.97569e-016 7.95139e-016 3.18055e-015 -0.0160462 0.00299482 0.000855342 -1.98785e-016 -2.38542e-015 -3.18055e-015 -3.97569e-016 7.95139e-016 3.18055e-015 -0.0125974 0.00312405 0.00282433 1.98785e-016 2.38542e-015 -0 -3.97569e-016 7.95139e-016 3.18055e-015 -1.98785e-016 1.59028e-015 -0 3.97569e-016 -7.95139e-016 3.18055e-015 2.50525 -12.8028 23.1785 -53.7148 -53.249 -9.94264 5.87483 -35.5317 -16.8116 -47.2267 10.0137 -28.0724 -0 0 6.36111e-015 2.38542e-015 -1.59028e-015 6.36111e-015 7.95139e-016 1.59028e-015 -0 -0 0 6.36111e-015 0.0129597 0.00231371 -8.39645e-005 2.38542e-015 1.59028e-015 3.18055e-015 -0 0 6.36111e-015 0.0163397 0.00303984 -0.000870044 -1.57206e-006 -2.97619e-006 -3.40113e-006 -0 0 6.36111e-015 0.0145848 0.00368459 -0.00325793 -5.56597e-015 -1.59028e-015 -0 -0 0 6.36111e-015 2.38542e-015 -1.59028e-015 6.36111e-015 7.95139e-016 1.59028e-015 -0 -20.2967 -57.2486 -5.6637 -173.834 49.6421 174.655 -11.4725 42.5171 13.4209 1.59028e-015 -1.77121e-009 4.77083e-015 35.4006 -52.3308 -0.190918 170.674 64.3442 -172.79 18.5923 46.7324 -38.6077 -8.26481e-007 -3.01282e-006 -1.46785e-006 
8.46731 18.5836 -32.4611 4.52296e-008 33.9971 -9.05597e-008 0.874695 11.8034 -0.549547 1.93167 23.5961 -1.33175 1.93167 23.5961 -1.33174 0.462615 -2.38768 -0.0261223 0.0486206 -2.69412 -0.0140574 -12.6195 -9.93679 -27.7404 49.2254 -40.4856 8.64236 -2.89575 -29.4711 17.9138 7.99935 2.92541 40.9817 -1.98785e-016 -1.19271e-015 -6.36111e-015 3.97569e-016 -1.59028e-015 -6.36111e-015 -5.96354e-016 -2.78299e-015 -0 -1.98785e-016 -1.19271e-015 -6.36111e-015 -0.0128215 0.00232476 8.94616e-005 -0 -1.19271e-015 -0 -1.98785e-016 -1.19271e-015 -6.36111e-015 -0.0160225 0.00299195 0.000855657 1.98785e-016 1.59028e-015 -0 -1.98785e-016 -1.19271e-015 -6.36111e-015 -0.0126 0.00312554 0.00283406 -1.98785e-016 1.19271e-015 -0 -1.98785e-016 -1.19271e-015 -6.36111e-015 3.97569e-016 -1.59028e-015 -6.36111e-015 -5.96354e-016 -2.78299e-015 -0 2.44118 -12.8212 23.1764 -54.3478 -53.4069 -10.1615 5.87457 -35.532 -16.812 -47.4059 10.0167 -27.9965 -4.7744e-006 -8.75323e-007 4.76116e-007 -4.47984e-006 2.29193e-006 6.26212e-007 4.77083e-015 -1.59028e-015 -6.36111e-015 -4.7744e-006 -8.75323e-007 4.76116e-007 0.012925 0.00231114 -8.72441e-005 2.88633e-006 5.32385e-007 -1.33751e-006 -4.7744e-006 -8.75323e-007 4.76116e-007 0.0163229 0.00303879 -0.00086751 -3.18055e-015 -1.59028e-015 -0 -4.7744e-006 -8.75323e-007 4.76116e-007 0.0145801 0.00368687 -0.00325845 7.95139e-016 1.81639e-006 3.18055e-015 -4.7744e-006 -8.75323e-007 4.76116e-007 -4.47984e-006 2.29193e-006 6.26212e-007 4.77083e-015 -1.59028e-015 -6.36111e-015 -20.2967 -57.2486 -5.66372 -173.834 49.642 174.655 -11.4725 42.517 13.4209 -8.91722e-008 4.8958e-006 -3.14472e-006 35.4014 -52.3305 -0.19037 170.673 64.3444 -172.79 18.5923 46.7324 -38.6077 -2.54089e-007 -1.85953e-006 3.0208e-006 
8.46731 18.5836 -32.4611 -1.0369e-007 33.9971 3.33085e-007 0.874307 11.8149 -0.549893 1.93121 23.6192 -1.33268 1.93121 23.6192 -1.33268 0.537464 -2.76899 -0.0234644 0.0565974 -3.1246 -0.0154086 -12.5387 -9.95915 -27.8106 49.7666 -40.6396 8.71993 -2.8877 -29.4547 17.9186 7.9994 2.69269 40.9717 4.41391e-032 7.95139e-016 -3.18055e-015 -1.98785e-016 7.95139e-016 -3.18055e-015 0 0 -3.18055e-015 4.41391e-032 7.95139e-016 -3.18055e-015 -0.0128151 0.00232399 8.53022e-005 5.96354e-016 -7.95139e-016 3.18055e-015 4.41391e-032 7.95139e-016 -3.18055e-015 -0.0160267 0.00299058 0.000856632 -1.98785e-016 -3.97569e-016 3.18055e-015 4.41391e-032 7.95139e-016 -3.18055e-015 -0.0126056 0.00312751 0.00283228 -7.02587e-006 5.97567e-007 -4.70857e-007 4.41391e-032 7.95139e-016 -3.18055e-015 -1.98785e-016 7.95139e-016 -3.18055e-015 0 0 -3.18055e-015 2.37709 -12.8398 23.1743 -54.9844 -53.5641 -10.384 5.87394 -35.5315 -16.8124 -47.5851 10.0194 -27.9206 4.41391e-031 -7.95139e-015 3.18055e-015 -1.59028e-015 -3.18055e-015 9.54166e-015 7.95139e-016 1.59028e-015 6.36111e-015 4.41391e-031 -7.95139e-015 3.18055e-015 0.0129386 0.00231605 -8.63895e-005 -7.95139e-016 -1.59028e-015 -0 4.41391e-031 -7.95139e-015 3.18055e-015 0.0163311 0.00303336 -0.000878193 1.59028e-015 4.77083e-015 3.18055e-015 4.41391e-031 -7.95139e-015 3.18055e-015 0.0145695 0.00367337 -0.00326381 1.59028e-015 1.59028e-015 9.54166e-015 4.41391e-031 -7.95139e-015 3.18055e-015 -1.59028e-015 -3.18055e-015 9.54166e-015 7.95139e-016 1.59028e-015 6.36111e-015 -20.2967 -57.2486 -5.66374 -173.834 49.642 174.655 -11.4725 42.517 13.4209 -7.95139e-016 1.77115e-009 -3.18055e-015 35.4017 -52.3304 -0.190098 170.673 64.3446 -172.789 18.5923 46.7324 -38.6077 4.53029e-007 -5.6033e-008 1.67261e-006 
8.46731 18.5836 -32.4611 -1.92329e-007 33.9971 -1.3886e-007 0.873918 11.8265 -0.55024 1.93075 23.6423 -1.33361 1.93074 23.6422 -1.3336 0.612394 -3.15039 -0.0203078 0.0645647 -3.55531 -0.0167012 -12.458 -9.98154 -27.8808 50.3099 -40.793 8.79977 -2.87974 -29.4385 17.9236 7.9994 2.45992 40.9617 -3.30125e-006 -2.78546e-007 -1.94555e-007 1.98785e-016 0 -3.18055e-015 5.96354e-016 0 -6.36111e-015 -3.30125e-006 -2.78546e-007 -1.94555e-007 -0.012793 0.00232092 8.91731e-005 7.95139e-016 3.97569e-016 3.18055e-015 -3.30125e-006 -2.78546e-007 -1.94555e-007 -0.0160582 0.00299672 0.000858229 -3.5476e-006 1.61337e-006 4.91942e-006 -3.30125e-006 -2.78546e-007 -1.94555e-007 -0.0125713 0.00311761 0.00281891 1.98785e-016 3.97569e-016 3.18055e-015 -3.30125e-006 -2.78546e-007 -1.94555e-007 1.98785e-016 0 -3.18055e-015 5.96354e-016 0 -6.36111e-015 2.313 -12.8583 23.1722 -55.6251 -53.7193 -10.6106 5.87361 -35.5317 -16.8127 -47.7643 10.0219 -27.8448 1.25852e-006 3.6408e-006 -2.03463e-006 -2.86227e-006 -2.33902e-006 1.3789e-006 4.73883e-007 1.75596e-006 1.52738e-006 1.25852e-006 3.6408e-006 -2.03463e-006 0.012925 0.0023074 -8.35619e-005 -9.74697e-023 1.75586e-006 3.18055e-015 1.25852e-006 3.6408e-006 -2.03463e-006 0.0163235 0.00303433 -0.000869077 -1.59028e-015 1.59028e-015 -0 1.25852e-006 3.6408e-006 -2.03463e-006 0.014599 0.00368005 -0.00326448 -1.60296e-006 1.25566e-006 -6.55991e-007 1.25852e-006 3.6408e-006 -2.03463e-006 -2.86227e-006 -2.33902e-006 1.3789e-006 4.73883e-007 1.75596e-006 1.52738e-006 -20.2968 -57.2486 -5.66375 -173.834 49.6421 174.655 -11.4725 42.517 13.4209 3.49747e-008 -8.60229e-009 9.38821e-007 35.4011 -52.3306 -0.190536 170.673 64.3444 -172.79 18.5923 46.7324 -38.6077 -3.62428e-007 -4.68264e-006 1.48099e-006 
8.46731 18.5836 -32.4611 4.19363e-007 33.9971 9.99827e-008 0.87353 11.8381 -0.550585 1.93029 23.6653 -1.33454 1.93028 23.6653 -1.33454 0.687405 -3.532 -0.0166485 0.0725372 -3.98619 -0.0179351 -12.3773 -10.0041 -27.9509 50.8545 -40.9467 8.88138 -2.8713 -29.4217 17.9284 7.99939 2.22716 40.9517 -1.98785e-016 -1.59028e-015 3.18055e-015 -2.98177e-016 -1.19271e-015 -6.36111e-015 -2.98177e-016 -3.97569e-016 -0 -1.98785e-016 -1.59028e-015 3.18055e-015 -0.0128144 0.00232598 8.40913e-005 -9.93923e-017 0 -0 -1.98785e-016 -1.59028e-015 3.18055e-015 -0.01605 0.00299796 0.00086026 -2.98177e-016 -7.95139e-016 -3.18055e-015 -1.98785e-016 -1.59028e-015 3.18055e-015 -0.0126114 0.00312974 0.00282814 -8.94531e-016 -7.95139e-016 -0 -1.98785e-016 -1.59028e-015 3.18055e-015 -2.98177e-016 -1.19271e-015 -6.36111e-015 -2.98177e-016 -3.97569e-016 -0 2.2489 -12.8769 23.17 -56.2696 -53.8731 -10.8411 5.87322 -35.5318 -16.8131 -47.9435 10.0241 -27.7689 -3.64319e-006 -1.91857e-006 -3.24194e-007 7.93059e-007 1.22543e-006 1.72365e-006 7.95139e-015 0 -3.18055e-015 -3.64319e-006 -1.91857e-006 -3.24194e-007 0.0129438 0.0023222 -8.35395e-005 -1.03368e-014 1.27222e-014 3.18055e-015 -3.64319e-006 -1.91857e-006 -3.24194e-007 0.016334 0.00304085 -0.000869268 4.77083e-015 -3.18055e-015 -3.18055e-015 -3.64319e-006 -1.91857e-006 -3.24194e-007 0.0145679 0.00367882 -0.00325459 2.85054e-006 2.08227e-006 -1.39935e-006 -3.64319e-006 -1.91857e-006 -3.24194e-007 7.93059e-007 1.22543e-006 1.72365e-006 7.95139e-015 0 -3.18055e-015 -20.2967 -57.2486 -5.66374 -173.834 49.6421 174.655 -11.4725 42.517 13.4209 3.74495e-007 -1.44482e-006 -2.02852e-007 35.4014 -52.3305 -0.190341 170.673 64.3445 -172.789 18.5923 46.7324 -38.6077 -7.95139e-016 0 -1.59028e-015 
